# xmcd
#
# Track frame offsets: 
#        150
#        44132
#        68582
#        90939
#        143064
#        182919
#        223946
#        240646
#        270402
#        287773
#        328326
#
# Disc length: 4813 seconds
#
# Revision: 0
# Processed by: cddbd v1.5.2PL0 Copyright (c) Steve Scherf et al.
# Submitted via: ExactAudioCopy v0.95a3
#
DISCID=a912cb0b
DTITLE=RONNIE EARL - The Best Instrumental  CD-2   80'13''
DYEAR=2005
DGENRE=Blues and Jazz
TTITLE0=Round Midnight
TTITLE1=Mr.B.K
TTITLE2=Thank You Mr.T-Bone
TTITLE3=Rego Park Blues
TTITLE4=Ice Cream Man
TTITLE5=I am With You
TTITLE6=Song for a Brother
TTITLE7=Song for a Sun
TTITLE8=The Magic of Sam
TTITLE9=Isabella
TTITLE10=Donna
EXTD=
EXTT0=
EXTT1=
EXTT2=
EXTT3=
EXTT4=
EXTT5=
EXTT6=
EXTT7=
EXTT8=
EXTT9=
EXTT10=
PLAYORDER=
